<?xml version="1.0" encoding="utf-8"?>
<svg fill="#000000" height="16px" width="16px" version="1.1" id="Layer_1" xmlns="http://www.w3.org/2000/svg" viewBox="0 0 16 16">
  <defs>
    <clipPath id="clip-0">
      <path d="M 748.296 410.933 L 735.176 413.557 C 674.931 425.61 616.563 445.642 561.651 473.098 C 555.656 476.085 548.574 476.085 542.579 473.098 C 487.667 445.642 429.299 425.61 369.054 413.557 L 355.934 410.933 C 345.971 408.928 338.782 400.181 338.782 390.005 L 338.782 311.456 C 338.782 218.827 374.835 131.765 440.329 66.293 L 537.033 -30.411 C 541.193 -34.571 546.654 -36.662 552.116 -36.662 C 557.577 -36.662 563.039 -34.571 567.199 -30.411 L 663.903 66.293 C 729.396 131.765 765.45 218.826 765.45 311.456 L 765.45 390.005 C 765.448 400.181 758.259 408.927 748.296 410.933 Z M 573.448 105.354 C 573.448 96.735 568.243 88.949 560.285 85.642 C 557.64 84.554 554.866 84.021 552.114 84.021 C 546.567 84.021 541.106 86.197 537.031 90.272 L 500.679 126.645 C 451.294 175.989 424.115 241.61 424.115 311.455 L 424.115 322.143 C 424.115 331.743 430.536 340.148 439.774 342.687 C 475.081 352.436 509.982 364.767 543.603 379.402 C 550.195 382.261 557.811 381.621 563.806 377.695 C 569.822 373.748 573.449 367.028 573.449 359.839 L 573.449 105.354 L 573.448 105.354 Z" style="transform-box: fill-box; transform-origin: 50% 50%;" transform="matrix(-1, 0, 0, -1, -0.000036, 0.000005)"/>
    </clipPath>
  </defs>
  <g transform="matrix(0.045453, 0, 0, 0.043879, 0.759537, -8.106054)">
    <g>
      <g>
        <path d="M234.667,318.475V147.36c-20.992,8.171-42.368,15.488-63.936,21.909C172.075,225.653,194.667,278.453,234.667,318.475z" style="opacity: 0;"/>
      </g>
    </g>
  </g>
  <g transform="matrix(-0.037432, 0, 0, 0.031194, 28.660843, 1.173446)" style="">
    <g>
      <g>
        <path d="M234.667,318.475V147.36c-20.992,8.171-42.368,15.488-63.936,21.909C172.075,225.653,194.667,278.453,234.667,318.475z" style="opacity: 0;"/>
        <path d="M 748.263 27.744 L 735.143 25.12 C 674.898 13.067 616.53 -6.969 561.618 -34.419 C 555.623 -37.409 548.541 -37.409 542.546 -34.419 C 487.634 -6.969 429.266 13.067 369.021 25.12 L 355.901 27.744 C 345.938 29.749 338.749 38.496 338.749 48.672 L 338.749 127.221 C 338.749 219.85 374.802 306.912 440.296 372.384 L 537 469.088 C 541.16 473.248 546.621 475.339 552.083 475.339 C 557.544 475.339 563.006 473.248 567.166 469.088 L 663.87 372.384 C 729.363 306.912 765.417 219.851 765.417 127.221 L 765.417 48.672 C 765.415 38.496 758.226 29.75 748.263 27.744 Z M 573.415 333.323 C 573.415 341.942 568.21 349.728 560.252 353.035 C 557.607 354.123 554.833 354.656 552.081 354.656 C 546.534 354.656 541.073 352.48 536.998 348.405 L 500.646 312.032 C 451.261 262.688 424.082 197.067 424.082 127.222 L 424.082 116.534 C 424.082 106.934 430.503 98.529 439.741 95.99 C 475.048 86.241 509.949 73.91 543.57 59.275 C 550.162 56.416 557.778 57.056 563.773 60.982 C 569.789 64.929 573.416 71.649 573.416 78.838 L 573.416 333.323 L 573.415 333.323 Z" style="clip-path: url(&quot;#clip-0&quot;); fill: rgb(8, 80, 151);"/>
      </g>
    </g>
  </g>
  <rect x="8.014" y="3.951" height="5.074" style="stroke-linecap: square; paint-order: stroke; stroke: rgb(255, 0, 0); fill: rgb(255, 0, 0);" width="0.02"/>
  <ellipse style="paint-order: stroke; fill-rule: evenodd; fill: rgb(255, 0, 0); stroke: rgb(255, 0, 0);" cx="8.024" cy="10.365" rx="0.194" ry="0.214"/>
</svg>
